<?xml version="1.0" encoding="UTF-8"?>
<svg xmlns="http://www.w3.org/2000/svg" viewBox="0 0 960 280" role="img">
  <defs><style>
    .bg{fill:#0f1624}.box{fill:#1a2740;stroke:#3d9cf5;stroke-width:1.5}
    .ok{fill:#143528;stroke:#3ecf8e}.bad{fill:#3a1e24;stroke:#ff8f8f}
    .lbl{fill:#e8eef6;font-family:system-ui,sans-serif;font-size:13px;font-weight:600;text-anchor:middle}
    .sub{fill:#8fa3bc;font-family:system-ui,sans-serif;font-size:11px;text-anchor:middle}
    .title{fill:#e8eef6;font-family:system-ui,sans-serif;font-size:16px;font-weight:700}
    .arrow{stroke:#5b7ea6;stroke-width:2;fill:none;marker-end:url(#m)}
    .ab{stroke:#c57a7a;stroke-width:1.5;fill:none;marker-end:url(#mb);stroke-dasharray:4 3}
  </style>
  <marker id="m" viewBox="0 0 10 10" refX="8" refY="5" markerWidth="6" markerHeight="6" orient="auto"><path d="M0 0 L10 5 L0 10z" fill="#5b7ea6"/></marker>
  <marker id="mb" viewBox="0 0 10 10" refX="8" refY="5" markerWidth="6" markerHeight="6" orient="auto"><path d="M0 0 L10 5 L0 10z" fill="#c57a7a"/></marker></defs>
  <rect class="bg" width="960" height="280" rx="16"/>
  <text class="title" x="24" y="36">标准生命周期 / Shared lifecycle</text>
  <text class="sub" x="480" y="36">所有场景共用同一状态机</text>
  <g transform="translate(40,70)"><rect class="box" width="120" height="52" rx="10"/><text class="lbl" x="60" y="24">PROPOSED</text><text class="sub" x="60" y="42">要约</text></g>
  <path class="arrow" d="M165 96 H195"/>
  <g transform="translate(200,70)"><rect class="box" width="120" height="52" rx="10"/><text class="lbl" x="60" y="24">CONTRACTED</text><text class="sub" x="60" y="42">缔约</text></g>
  <path class="arrow" d="M325 96 H355"/>
  <g transform="translate(360,70)"><rect class="box" width="120" height="52" rx="10"/><text class="lbl" x="60" y="24">ESCROWED</text><text class="sub" x="60" y="42">托管</text></g>
  <path class="arrow" d="M485 96 H515"/>
  <g transform="translate(520,70)"><rect class="box" width="120" height="52" rx="10"/><text class="lbl" x="60" y="24">DELIVERED</text><text class="sub" x="60" y="42">交付</text></g>
  <path class="arrow" d="M645 96 H675"/>
  <g transform="translate(680,70)"><rect class="box" width="110" height="52" rx="10"/><text class="lbl" x="55" y="24">VERIFIED</text><text class="sub" x="55" y="42">验收</text></g>
  <path class="arrow" d="M795 96 H825"/>
  <g transform="translate(830,70)"><rect class="ok box" width="100" height="52" rx="10"/><text class="lbl" x="50" y="24">SETTLED</text><text class="sub" x="50" y="42">终局</text></g>
  <text class="sub" x="480" y="265">Truth = dual-signed VDC · 节点可替代</text>
</svg>